<?xml version="1.0" encoding="UTF-8"?>
<svg width="300px" height="132px" viewBox="0 0 300 132" version="1.1" xmlns="http://www.w3.org/2000/svg" xmlns:xlink="http://www.w3.org/1999/xlink">
    <title>Los_Angeles_Wordmark_Gradient</title>
    <defs>
        <linearGradient x1="50.0001607%" y1="0%" x2="50.0001607%" y2="100.000032%" id="linearGradient-1">
            <stop stop-color="#FAEE4E" offset="13%"></stop>
            <stop stop-color="#FAE851" offset="16%"></stop>
            <stop stop-color="#F8D858" offset="21%"></stop>
            <stop stop-color="#F6BE64" offset="27%"></stop>
            <stop stop-color="#F39975" offset="33%"></stop>
            <stop stop-color="#F06A8A" offset="39%"></stop>
            <stop stop-color="#ED4A99" offset="42%"></stop>
            <stop stop-color="#D3569B" offset="45%"></stop>
            <stop stop-color="#95739F" offset="53%"></stop>
            <stop stop-color="#618CA3" offset="61%"></stop>
            <stop stop-color="#389FA6" offset="68%"></stop>
            <stop stop-color="#1BADA8" offset="74%"></stop>
            <stop stop-color="#09B5AA" offset="80%"></stop>
            <stop stop-color="#03B8AA" offset="84%"></stop>
        </linearGradient>
    </defs>
    <g id="Page-1" stroke="none" stroke-width="1" fill="none" fill-rule="evenodd">
        <g id="Los_Angeles_Wordmark_Gradient" fill="url(#linearGradient-1)" fill-rule="nonzero">
            <path d="M71.5055468,107.063391 C72.8700475,109.792393 73.3074485,112.768621 72.4183835,113.681458 C61.659271,111.727417 42.6133122,110.743265 24.2852615,111.418384 C21.5419968,116.980983 20.1394612,117.551506 16.4405705,117.237718 C11.2107765,116.800317 2.70998415,114.656101 0.494453249,113.115689 C0.347068146,112.031696 1.00316957,110.034865 1.84944532,108.646593 C3,106.744849 4.04120444,106.193344 6.87004754,105.822504 C10.0507132,105.408875 13.9587956,105.028526 18.2805071,104.690967 C22.3787639,95.9191759 27.7464342,84.2472266 33.9698891,72.9318542 C40.7020602,60.7226624 48.518225,48.066561 53.9904913,41.1014263 C55.0507132,40.6259905 58.3787639,41.3724247 61.4928685,45.2567353 C63.8700475,48.2234548 62.9191759,51.5087163 61.0174326,55.0269414 C58.8637084,59.044374 55.3787639,63.9889065 52.4120444,66.9366086 C50.3914422,68.9429477 49.3977813,69.2472266 47.4770206,68.6576862 C41.866878,76.4690967 31.7400951,94.7163233 27.1283677,104.096672 C40.9445325,103.307448 54.703645,102.974643 64.6545166,103.402536 C68.8716323,103.578447 70.2931854,104.638669 71.5055468,107.063391 Z M130.316957,107.263074 C129.280507,111.042789 126.223455,117.085578 124.611727,118.816165 C123.413629,119.134707 120.37084,118.098257 117.998415,116.438986 C116.049128,115.064976 115.473851,113.424723 116.0729,110.201268 C116.809826,106.250396 119.248811,99.2377179 122.59588,90.9651347 C117.575277,91.274168 112.136292,91.8874802 107.058637,92.6624406 C100.911252,101.415214 95.7337559,109.492868 92.7147385,115.136292 C91.7353407,115.37401 89.044374,114.033281 86.9809826,111.675119 C85.4881141,109.96355 85.5546751,108.204437 87.0760697,105.627575 C89.2630745,101.961965 91.9683043,97.9064976 94.9968304,93.6608558 C93.18542,93.0380349 91.0269414,88.7686212 91.4786054,86.7765452 C92.800317,86.3866878 96.4421553,85.9017433 101.0729,85.459588 C114.385103,68.0681458 131.025357,49.7020602 139.649762,42.6703645 C142.259905,40.5356577 144.147385,40.3264659 146.652932,41.7527734 C150.2187,43.7876387 152.263074,46.1315372 151.944532,47.3914422 C145.37401,57.3423138 132.118859,89.3011094 128.491284,102.413629 C130.787639,103.725832 130.968304,104.89065 130.316957,107.263074 Z M125.377179,84.2282092 C130.03645,73.3264659 135.77496,61.2028526 141.095087,51.2377179 C140.857369,51.0855784 140.59588,51.2377179 140.229794,51.5895404 C131.895404,59.9762282 121.81141,72.4041204 112.8542,84.5657686 C117.299525,84.3232964 121.721078,84.18542 125.377179,84.2282092 Z M89.1204437,68.5388273 C87.251981,67.0031696 85.3835182,66.8843106 84.6608558,67.0602219 C80.7290016,74.1014263 74.8383518,79.8161648 70.6830428,82.7068146 C69.6085578,83.4532488 68.9619651,83.7099842 68.2250396,83.4770206 C69.5780687,81.079238 70.7723907,78.5953024 71.800317,76.0412044 C72.7511886,73.6640254 72.7511886,72.4136292 71.9144216,70.9635499 C70.9635499,69.3518225 69.8748019,68.5388273 68.614897,68.3391442 C66.2377179,70.4786054 63.1901743,75.133122 62.0158479,77.7194929 C60.7179081,80.5721078 60.9746434,82.5499208 62.0158479,84.4754358 C59.9286846,87.7464342 57.6893819,90.3708399 55.4167987,91.792393 C54.0522979,92.6481775 53.4912837,92.362916 53.4912837,90.8129952 C53.4912837,87.2900158 57.5657686,79.3787639 64.8732171,70.9160063 C64.179314,69.9078661 63.2357429,69.0969847 62.1347068,68.562599 C60.8795563,67.9968304 59.8478605,68.2678288 58.4310618,69.3755943 C53.4532488,73.274168 47.3153724,82.4690967 45.5229794,88.3454834 C44.496038,91.7115689 44.7860539,93.503962 46.5309033,95.4342314 C48.0950872,97.1648177 51.0998415,99.3042789 52.9255151,99.836767 C56.9429477,98.8050713 61.4833597,93.9223455 65.2868463,88.2599049 C65.9435846,88.8732853 66.7253687,89.3371655 67.5784469,89.6196513 C70.8541997,89.4912837 77.6862124,83.3391442 82.9064976,75.9841521 C81.6906443,81.0552868 79.972159,85.9925476 77.7765452,90.7226624 C75.9677665,90.7726005 74.1654128,90.960147 72.385103,91.2836767 C70.7305864,91.6259905 70.0079239,91.9825674 69.1473851,92.8240887 C68.3329229,93.6813882 67.7931975,94.7624945 67.5974643,95.9286846 C69.2424723,97.4500792 73.8779715,99.9128368 76.8494453,100.602219 C79.4215531,101.196513 80.7955626,100.8542 81.9698891,98.933439 C85.7115689,92.8050713 89.1014263,81.6228209 90.3280507,74.800317 C90.9128368,71.5007924 90.9936609,70.0602219 89.1204437,68.5245642 L89.1204437,68.5388273 Z M233.015848,109.654517 C234.156894,113.020602 234.090333,114.760697 233.562599,115.535658 C221.201268,114 201.998415,112.735341 180.789223,112.77813 C178.583201,118.274168 176.18225,124.33122 174.55626,127.217116 C172.179081,131.429434 170.55309,132.332805 164.462758,130.59271 C154.354992,127.697306 139.630745,119.267829 136.977813,114.527734 C137.015848,113.438986 138.10935,111.118859 138.879556,110.18225 C140.096672,108.675119 141.019017,108.166403 144.10935,107.776545 C152.800317,106.678288 163.835182,105.81775 175.916006,105.318542 C177.736926,101.448494 179.676704,97.4833597 181.678288,93.9080824 C178.511886,97.3217116 175.911252,99.5134707 174.546751,99.9984152 C172.575229,99.6565856 170.73239,98.7893671 169.212361,97.4881141 C167.638669,96.118859 167.362916,94.7638669 168.166403,92.1347068 C168.854269,89.9165965 169.802225,87.7876866 170.990491,85.792393 C164.866878,92.3153724 158.961965,99.5562599 157.416799,100.416799 C155.909667,100.088748 153.770206,98.881141 152.343899,97.5879556 C151.088748,96.451664 150.865293,95.496038 151.868463,93.0285261 C153.641838,88.6069731 157.526149,81.836767 160.873217,77.0538827 C153.137876,84.18542 142.473851,97.274168 139.816165,99.9270998 C138.594295,99.570523 136.635499,98.0966719 135.537242,96.5419968 C134.534073,95.1156894 134.491284,94.0839937 135.427892,91.9445325 C138.48019,84.9746434 144.171157,74.6862124 149.0729,68.0633914 C150.86816,68.6289604 152.438913,69.7471236 153.561014,71.2583201 C154.545166,72.5515055 154.459588,73.2979398 153.223455,75.0618067 C151.107765,78.0475436 147.26149,83.9619651 144.118859,89.1061807 C149.638669,82.6782884 158.329635,73.2551506 163.792393,68.8763867 C165.723584,69.5378551 167.466932,70.6549679 168.874802,72.133122 C170.03962,73.3787639 170.115689,74.2820919 168.908082,76.3359746 C166.954041,79.6640254 162.793978,87.0618067 160.825674,91.2931854 C168.841521,83.2107765 179.33439,72.2044374 186.679873,68.7527734 C189.361331,67.4928685 191.396197,67.5309033 193.302694,68.8193344 C195.128368,70.0554675 196.012678,71.6719493 195.637084,72.4041204 C186.760697,73.3835182 178.312203,85.9350238 176.676704,92.0681458 C176.22504,93.7416799 176.496038,93.7179081 177.789223,92.8716323 C180.841521,90.8700475 189.361331,82.0031696 192.242472,77.1489699 C193.093502,76.9635499 194.648177,77.6719493 195.974643,79.2456418 C196.892235,80.3248811 196.830428,81.3803487 195.732171,83.0491284 C191.176905,90.0173604 187.251712,97.3776946 184.00317,105.042789 C198.627575,104.652932 218.448494,104.885895 227.676704,105.755943 C230.824089,106.055468 232.18859,107.215531 233.015848,109.654517 Z M172.393027,112.863708 C161.353407,113.063391 151.535658,113.610143 144.513471,114.418384 C150.190174,118.459588 157.744849,122.153724 163.264659,123.627575 C165.570523,124.240887 166.402536,123.974643 167.657686,122.020602 C169.022187,119.895404 170.624406,116.633914 172.393027,112.863708 L172.393027,112.863708 Z M299.153724,101.652932 C293.272583,100.283677 280.364501,99.2282092 273.37084,99.451664 C272.895404,100.402536 272.419968,101.305864 271.944532,102.180666 C270.812995,104.282092 269.819334,104.833597 266.752773,104.229794 C263.686212,103.62599 259.1458,101.196513 257.491284,99.3898574 C257.746689,98.1797717 258.326886,97.0621114 259.169572,96.1568938 C259.973059,95.3106181 261.114105,94.8922345 263.14897,94.59271 C264.394612,94.4120444 265.968304,94.2361331 267.755943,94.0744849 C270.409222,88.5675515 272.728785,82.9059767 274.70206,77.1204437 C265.621236,89.0396197 251.619651,99.9698891 246.047544,100.511886 C243.085578,100.445325 240.180666,98.6101426 238.29794,96.3470681 C236.843106,94.6069731 236.296355,93.1141046 236.824089,90.8082409 C233.496038,94.8351823 229.031696,99.7179081 226.397781,100.369255 C224.358913,100.081921 222.491991,99.0691249 221.139461,97.5166403 C219.969889,96.1568938 219.779715,95.2202853 220.882726,92.0871632 C221.196513,91.2028526 221.591125,90.2234548 222.052298,89.1727417 C216.722662,95.1299525 208.873217,99.9318542 205.706815,100.345483 C202.830428,100.278922 199.288431,98.0966719 197.41046,95.9049128 C195.204437,93.3280507 195.213946,91.0792393 197.025357,87.1664025 C200.419968,79.8351823 208.22187,70.8256735 215.25832,67.4167987 C216.908082,67.3930269 220.445325,69.6133122 222.427892,72.0570523 C224.229794,74.2820919 224.215531,75.7321712 222.07607,79.0031696 C219.936609,82.274168 216.679873,85.659271 214.060222,87.2805071 C212.396197,88.3122029 210.732171,88.088748 208.944532,86.7670365 C208.34413,86.3439261 207.783925,85.8664784 207.270998,85.340729 C206.071346,87.3066367 205.080236,89.3924296 204.313788,91.5641838 C203.405705,94.3549921 204.456418,95.4389857 207.689382,94.4405705 C213.213946,92.7337559 221.548336,86.2820919 226.511886,79.7020602 C233.619651,67.2884311 244.725832,51.7939778 251.843106,45.8177496 C253.031696,45.7416799 255.461173,47.3106181 256.649762,50.0966719 C257.381933,51.822504 257.310618,53.2535658 255.156894,56.1014263 C250.564184,62.2060222 242.757528,70.3359746 235.350238,77.5673534 C232.559429,82.5356577 229.954041,88.1267829 228.874802,91.8304279 C228.44691,93.3042789 228.898574,93.3755943 230.020602,92.5245642 C235.393027,88.4310618 248.286846,70.9920761 255.789223,67.4928685 C257.267829,67.59271 259.844691,68.9524564 262.369255,71.7955626 C264.508716,74.2012678 264.423138,75.6751189 262.540412,78.9508716 C260.630612,82.0656358 258.116938,84.766825 255.147385,86.8954041 C253.141046,88.2313788 251.41046,88.1362916 249.251981,86.5055468 C248.761632,86.1427613 248.297704,85.7455628 247.863708,85.3169572 C246.600756,87.3125564 245.61397,89.4700512 244.930269,91.7305864 C244.160063,94.5832013 244.968304,95.3819334 248.229794,94.3835182 C254.110935,92.5768621 269.358162,79.1125198 277.231379,67.4976228 C278.058637,67.2694136 280.041204,67.9445325 281.472266,69.0427892 C283.473851,70.5784469 283.659271,71.7812995 282.717908,75.2662441 C280.942132,81.4899932 278.738795,87.5837203 276.123613,93.503962 C282.07607,93.2139461 288.580032,93.1045959 293.510301,93.318542 C296.310618,93.4421553 297.675119,94.3264659 298.545166,96.3946117 C299.633914,98.9477021 299.805071,100.935024 299.153724,101.652932 Z M249.328051,83.110935 C250.307448,83.7860539 251.049128,83.7575277 252.057052,83.0586371 C253.749604,81.8843106 256.445325,78.7511886 257.51981,76.4786054 C257.995246,75.4896989 257.933439,75.0047544 257.291601,74.3343899 C254.235508,76.8668911 251.554262,79.8202639 249.328051,83.1061807 L249.328051,83.110935 Z M208.792393,82.9302694 C209.600634,83.5388273 210.432647,83.6957211 211.226624,83.1537242 C212.776545,82.1030111 215.505547,79.0554675 216.865293,76.6640254 C217.621236,75.3280507 217.340729,74.6671949 216.736926,74.0966719 C213.827258,76.340729 211.03645,79.6022187 208.792393,82.9255151 L208.792393,82.9302694 Z M196.364501,42.8795563 C206.961965,42.8795563 221.486529,43.40729 229.697306,44.2440571 C230.428179,41.4086502 230.789335,38.4906358 230.7724,35.562599 C230.7724,15.2424723 215.524564,0 195.209192,0 C174.893819,0 159.646593,15.2424723 159.646593,35.562599 C159.619288,38.4486923 159.970945,41.3258841 160.692552,44.1204437 C167.486529,43.4310618 181.877971,42.8795563 196.364501,42.8795563 Z M156.042789,52.7448494 C167.928685,51.7511886 188.914422,51.0190174 206.966719,51.318542 C207.190174,51.318542 207.228209,51.3613312 207.223455,51.4326466 C195.156894,52.1220285 181.749604,53.1727417 176.405705,53.9477021 C173.077655,54.4231379 172.03645,55.3740095 171.247227,57.3137876 C170.458003,59.2535658 170.529319,60.3328051 170.961965,60.5800317 C177,60.2472266 190.906498,60.3803487 202.126783,60.955626 C202.521395,62.5007924 203.25832,62.9191759 204.641838,63.0998415 C207.375594,63.4659271 212.087163,62.7670365 213.622821,61.8494453 C213.965135,61.5689382 214.141046,60.836767 213.399366,59.5150555 C212.724247,58.3074485 211.949287,57.8510301 209.59588,57.6133122 C205.240887,57.1711569 198.18542,56.866878 191.429477,56.800317 C191.429477,56.7527734 191.481775,56.7099842 191.690967,56.6862124 C205.050713,55.2599049 224.833597,54.2139461 237.622821,54.5610143 C237.965135,54.0855784 237.860539,52.5832013 237.18542,50.4865293 C236.543582,48.503962 235.378764,47.4199683 232.706815,47.1061807 C223.801902,46.0649762 207.228209,45.5562599 196.307448,45.5609812 C182.272583,45.5609812 168.546751,46.141046 161.980983,46.8304279 C159.275753,47.110935 158.291601,47.6291601 157.259905,48.836767 C156.651462,49.5915992 156.201888,50.4616386 155.938193,51.3946117 C155.771791,52.1077655 155.752773,52.59271 156.042789,52.7448494 Z M286.312203,86.2393027 L286.312203,85.7638669 L283.307448,85.7638669 L283.307448,86.2393027 L284.55309,86.2393027 L284.55309,89.3534073 L285.066561,89.3534073 L285.066561,86.229794 L286.312203,86.2393027 Z M287.053883,89.362916 L287.529319,89.362916 L287.529319,87.2662441 C287.529319,86.9809826 287.529319,86.5958796 287.529319,86.5958796 C287.529319,86.5958796 287.648177,86.9667195 287.757528,87.2282092 L288.646593,89.3534073 L289.122029,89.3534073 L289.982567,87.2187005 C290.087163,86.9524564 290.22504,86.5863708 290.22504,86.5863708 C290.22504,86.5863708 290.196513,86.9714739 290.196513,87.2567353 L290.196513,89.3534073 L290.700475,89.3534073 L290.700475,85.7591125 L290.096672,85.7591125 L289.1458,88.1362916 C289.03645,88.4025357 288.908082,88.7496038 288.908082,88.7496038 C288.908082,88.7496038 288.770206,88.4025357 288.656101,88.1362916 L287.657686,85.7591125 L287.053883,85.7591125 L287.053883,89.362916 Z" id="Shape"></path>
        </g>
    </g>
</svg>